<svg width="166" height="141" xmlns="http://www.w3.org/2000/svg">
  <g fill="none" fill-rule="evenodd">
    <g fill="#6568FF" fill-rule="nonzero">
      <path d="M71 100V40.87h4.972v4.879c1.211-.951 2.297-1.861 3.509-2.688 2.005-1.365 4.261-2.357 6.684-2.688 2.048-.29 4.178-.496 6.225-.29 3.468.331 6.643 1.53 9.484 3.557 2.632 1.902 4.596 4.342 5.974 7.236 1.17 2.398 1.797 4.92 2.047 7.567.418 4.3-.417 8.27-2.465 12.033-2.172 3.97-5.43 6.74-9.65 8.477-2.8 1.158-5.724 1.695-8.732 1.571-3.885-.207-7.52-1.323-10.57-3.845-.794-.662-1.504-1.365-2.298-2.15V100H71zm5.39-32.253c1.002 1.571 2.13 3.018 3.592 4.259 3.551 2.977 7.604 4.3 12.2 3.556 3.634-.579 6.726-2.191 9.107-5.045 2.59-3.06 3.635-6.698 3.635-10.585 0-1.902-.376-3.804-1.086-5.665-1.38-3.763-3.844-6.534-7.479-8.188-3.593-1.654-7.27-1.902-11.07-.661-3.218 1.034-5.85 2.977-8.106 5.417-.794.868-1.17 1.82-1.086 3.06l.292 13.852zM31 75.142c.77-.96 1.54-1.88 2.31-2.84.243-.292.446-.585.689-.877 2.553 2.255 5.43 3.884 8.713 4.47 2.958.542 5.876.375 8.551-1.38 2.999-2.004 4.012-5.763 1.418-8.812-1.013-1.212-2.472-1.838-3.971-2.34-2.918-.96-5.917-1.795-8.835-2.756-2.148-.71-4.174-1.754-5.714-3.55-.932-1.045-1.5-2.298-1.743-3.634-.689-3.843.406-7.143 3.12-9.774 1.946-1.922 4.378-3.05 7.012-3.425 4.62-.669 9.037.167 13.17 2.422.609.334 1.176.752 1.825 1.128a175.467 175.467 0 0 1-2.554 4.093c-1.296-.71-2.512-1.462-3.809-2.005-2.27-.96-4.58-1.378-7.052-1.002-2.066.292-4.012.919-5.47 2.506-1.662 1.838-2.23 4.511-.608 6.6.932 1.21 2.269 1.88 3.687 2.339 2.716.877 5.471 1.712 8.187 2.59 2.431.793 4.741 1.837 6.605 3.675 1.54 1.545 2.27 3.467 2.432 5.639.162 2.214-.203 4.302-1.216 6.307-1.013 1.963-2.512 3.425-4.336 4.47-2.958 1.712-6.2 2.255-9.524 1.92-4.336-.375-8.308-1.796-11.793-4.594L31 75.435v-.293zM126.623 100H122V40.871h4.623v4.797c3.76-4.797 8.697-6.12 14.377-5.54-.235 1.529-.43 3.1-.666 4.63-2.82-.33-5.445.124-7.874 1.53-2.468 1.406-4.27 3.597-5.485 6.244-.235.496-.391.827-.391 1.654l.039 45.814z"/>
    </g>
    <text font-family="SourceSansPro-Regular, Source Sans Pro" font-size="20" fill="#222" transform="translate(0 -10)">
      <tspan x="0" y="20">s</tspan>
    </text>
    <text font-family="SourceSansPro-Regular, Source Sans Pro" font-size="20" fill="#222" transform="translate(0 -10)">
      <tspan x="150" y="151">m</tspan>
    </text>
    <text font-family="SourceSansPro-Regular, Source Sans Pro" font-size="20" fill="#222" transform="translate(0 -10)">
      <tspan x="150" y="20">m</tspan>
    </text>
    <text font-family="SourceSansPro-Regular, Source Sans Pro" font-size="20" fill="#222" transform="translate(0 -10)">
      <tspan x="2" y="150">t</tspan>
    </text>
  </g>
</svg>
